<svg width="16" height="16" viewBox="0 0 16 16" fill="none" xmlns="http://www.w3.org/2000/svg">
<path d="M11 5C10.5625 2.21875 9.46875 0.25 8.25 0.25C7 0.25 5.9375 2.21875 5.46875 5H11ZM5.25 8C5.25 8.71875 5.28125 9.375 5.34375 10H11.125C11.1875 9.375 11.2188 8.71875 11.2188 8C11.2188 7.3125 11.1875 6.65625 11.125 6H5.34375C5.28125 6.65625 5.25 7.3125 5.25 8ZM15.375 5C14.5 2.90625 12.6875 1.25 10.4375 0.59375C11.2188 1.65625 11.7188 3.25 12 5H15.375ZM6.03125 0.59375C3.78125 1.25 1.96875 2.90625 1.09375 5H4.46875C4.75 3.25 5.25 1.65625 6.03125 0.59375ZM15.7188 6H12.125C12.1875 6.65625 12.25 7.34375 12.25 8C12.25 8.6875 12.1875 9.34375 12.125 10H15.7188C15.875 9.375 15.9688 8.71875 15.9688 8C15.9688 7.3125 15.875 6.65625 15.7188 6ZM4.25 8C4.25 7.34375 4.28125 6.65625 4.34375 6H0.75C0.59375 6.65625 0.5 7.3125 0.5 8C0.5 8.71875 0.59375 9.375 0.75 10H4.34375C4.28125 9.34375 4.25 8.6875 4.25 8ZM5.46875 11C5.9375 13.8125 7 15.75 8.25 15.75C9.46875 15.75 10.5625 13.8125 11 11H5.46875ZM10.4375 15.4375C12.6875 14.7812 14.5 13.125 15.375 11H12C11.75 12.7812 11.2188 14.375 10.4375 15.4375ZM1.09375 11C1.96875 13.125 3.78125 14.7812 6.03125 15.4375C5.25 14.375 4.75 12.7812 4.46875 11H1.09375Z" fill="white"/>
</svg>
