<svg width="13" height="11" viewBox="0 0 13 11" fill="none" xmlns="http://www.w3.org/2000/svg">
<path d="M12.4868 5.75C12.4868 6.24219 12.104 6.625 11.6391 6.625H3.24459L6.11569 9.52344C6.47116 9.85156 6.47116 10.4258 6.11569 10.7539C5.95162 10.918 5.73287 11 5.51412 11C5.26803 11 5.04928 10.918 4.88522 10.7539L0.510218 6.37891C0.154749 6.05078 0.154749 5.47656 0.510218 5.14844L4.88522 0.773438C5.21334 0.417969 5.78756 0.417969 6.11569 0.773438C6.47116 1.10156 6.47116 1.67578 6.11569 2.00391L3.24459 4.875H11.6391C12.104 4.875 12.4868 5.28516 12.4868 5.75Z" fill="#262626"/>
</svg>
