<svg width="16" height="16" viewBox="0 0 16 16" fill="none" xmlns="http://www.w3.org/2000/svg">
<g clip-path="url(#clip0_23_75)">
<path d="M0.136767 8.35623L4.93651 13.6893C5.0389 13.8023 5.18183 13.8663 5.33329 13.8663H8.53311C8.74323 13.8663 8.93416 13.7426 9.02055 13.5506C9.10588 13.3576 9.07068 13.1325 8.92989 12.9768L4.4512 7.99998L8.92989 3.02425C9.07068 2.86746 9.10695 2.64241 9.02055 2.45042C8.93416 2.25736 8.74323 2.13363 8.53311 2.13363H5.33329C5.18183 2.13363 5.0389 2.1987 4.93651 2.30962L0.136767 7.64267C-0.0456228 7.84532 -0.0456228 8.15464 0.136767 8.35623Z" fill="#FF8100"/>
<path d="M7.06975 8.35623L11.8695 13.6893C11.9719 13.8023 12.1148 13.8663 12.2663 13.8663H15.4661C15.6762 13.8663 15.8671 13.7426 15.9535 13.5506C16.0389 13.3576 16.0037 13.1325 15.8629 12.9768L11.3842 7.99998L15.8629 3.02425C16.0037 2.86746 16.0399 2.64241 15.9535 2.45042C15.8671 2.25736 15.6762 2.13363 15.4661 2.13363H12.2663C12.1148 2.13363 11.9719 2.1987 11.8695 2.30962L7.06975 7.64267C6.88736 7.84532 6.88736 8.15464 7.06975 8.35623Z" fill="#FF8100"/>
</g>
<defs>
<clipPath id="clip0_23_75">
<rect width="16" height="16" fill="white" transform="translate(16 16) rotate(-180)"/>
</clipPath>
</defs>
</svg>
