<svg width="45" height="45" viewBox="0 0 45 45" fill="none" xmlns="http://www.w3.org/2000/svg">
<path d="M38.2354 15.0371C38.2349 15.0371 38.2343 15.0371 38.2339 15.0371H0.644286C0.288876 15.0367 0.000376264 15.3245 3.67865e-07 15.6799C3.67865e-07 15.6804 3.67865e-07 15.6809 3.67865e-07 15.6814V33.7244C-0.000375528 34.0798 0.287373 34.3683 0.642782 34.3687C0.643252 34.3687 0.643816 34.3687 0.644286 34.3687H26.2052C26.561 34.3687 26.8495 34.0802 26.8495 33.7244C26.8495 33.3686 26.561 33.0801 26.2052 33.0801H1.28857V16.3257H37.5896V17.9368C37.5892 18.2922 37.877 18.5807 38.2324 18.5811C38.2328 18.5811 38.2334 18.5811 38.2339 18.5811C38.5893 18.5814 38.8778 18.2937 38.8782 17.9383C38.8782 17.9378 38.8782 17.9372 38.8782 17.9368V15.6814C38.8785 15.326 38.5908 15.0376 38.2354 15.0371Z" fill="#AFCA0B"/>
<path d="M33.8645 12.0459L3.79279 5.27975C3.62589 5.24244 3.45101 5.2727 3.30638 5.36395C3.16194 5.45595 3.05979 5.60133 3.0222 5.76842L1.51862 12.5345C1.44137 12.8821 1.66052 13.2264 2.00804 13.3036C2.35555 13.3809 2.69987 13.1617 2.77712 12.8142L4.14012 6.67884L33.5818 13.3029C33.6284 13.3137 33.676 13.319 33.7239 13.3187C34.0797 13.318 34.3676 13.029 34.367 12.6732C34.3665 12.3724 34.1578 12.1121 33.8645 12.0459Z" fill="#AFCA0B"/>
<path d="M30.213 8.31781L12.17 0.799894C11.8564 0.669176 11.4951 0.803465 11.343 1.10738L9.83945 4.11454C9.66964 4.42861 9.78654 4.82095 10.1007 4.99076C10.4148 5.16057 10.8071 5.04366 10.9769 4.72951C10.9836 4.7172 10.9899 4.70461 10.9957 4.69183V4.69333L12.2294 2.22445L29.7153 9.51006C30.0446 9.64745 30.4229 9.49202 30.5603 9.16273C30.6977 8.83364 30.5423 8.4553 30.213 8.31781Z" fill="#AFCA0B"/>
<path d="M30.6686 18.0444H24.7016C24.3458 18.0444 24.0573 18.3329 24.0573 18.6887C24.0573 19.0445 24.3458 19.333 24.7016 19.333H30.6686C31.0244 19.333 31.3129 19.0445 31.3129 18.6887C31.3129 18.3329 31.0244 18.0444 30.6686 18.0444Z" fill="#AFCA0B"/>
<path d="M18.6873 18.0874C15.0335 18.0874 12.0715 21.0494 12.0715 24.7032C12.0753 28.3554 15.0351 31.3152 18.6873 31.3189C22.3411 31.3189 25.3031 28.357 25.3031 24.7032C25.3031 21.0494 22.3411 18.0874 18.6873 18.0874ZM18.6873 30.1161C15.6978 30.1161 13.2744 27.6927 13.2744 24.7032C13.2777 21.7151 15.6992 19.2936 18.6873 19.2903C21.6768 19.2903 24.1002 21.7137 24.1002 24.7032C24.1002 27.6927 21.6768 30.1161 18.6873 30.1161Z" fill="#AFCA0B"/>
<path d="M36.7303 20.1924C32.7458 20.1924 28.4606 21.1336 28.4606 23.1995V41.2425C28.4606 43.3085 32.7458 44.2497 36.7303 44.2497C40.7148 44.2497 45 43.3085 45 41.2425V23.1995C45 21.1336 40.7148 20.1924 36.7303 20.1924ZM43.4964 41.2313C43.3829 41.6485 41.1283 42.7461 36.7303 42.7461C32.3323 42.7461 30.0777 41.6485 29.9642 41.2425V40.0607C31.564 40.8667 34.2065 41.2425 36.7303 41.2425C39.2541 41.2425 41.8974 40.8629 43.4964 40.06V41.2313ZM43.4964 38.2241C43.3829 38.6413 41.1283 39.739 36.7303 39.739C32.3323 39.739 30.0777 38.6413 29.9642 38.2354V37.0536C31.564 37.8595 34.2065 38.2354 36.7303 38.2354C39.2541 38.2354 41.8974 37.8557 43.4964 37.0528V38.2241ZM43.4964 35.2169C43.3829 35.6342 41.1283 36.7318 36.7303 36.7318C32.3323 36.7318 30.0777 35.6342 29.9642 35.2282V34.0464C31.564 34.8523 34.2065 35.2282 36.7303 35.2282C39.2541 35.2282 41.8974 34.8486 43.4964 34.0456V35.2169ZM43.4964 32.2098C43.3829 32.627 41.1283 33.7246 36.7303 33.7246C32.3323 33.7246 30.0777 32.627 29.9642 32.221V31.0392C31.564 31.8452 34.2065 32.221 36.7303 32.221C39.2541 32.221 41.8974 31.8414 43.4964 31.0385V32.2098ZM43.4964 29.2026C43.3829 29.6199 41.1283 30.7175 36.7303 30.7175C32.3323 30.7175 30.0777 29.6198 29.9642 29.2139V28.0321C31.564 28.8342 34.2065 29.2139 36.7303 29.2139C39.2541 29.2139 41.8974 28.8342 43.4964 28.0313V29.2026ZM43.4964 26.1954C43.3829 26.6127 41.1283 27.7103 36.7303 27.7103C32.3323 27.7103 30.0777 26.6127 29.9642 26.2067V25.0249C31.564 25.8271 34.2065 26.2067 36.7303 26.2067C39.2541 26.2067 41.8974 25.8271 43.4964 25.0241V26.1954ZM36.7303 24.7031C32.3391 24.7031 30.0852 23.6085 29.9642 23.2131V23.2086C30.0852 22.7898 32.3391 21.696 36.7303 21.696C41.0907 21.696 43.3461 22.774 43.4964 23.1995C43.3461 23.6251 41.0907 24.7031 36.7303 24.7031Z" fill="#AFCA0B"/>
<path d="M12.673 30.0724H6.99016L4.29574 27.1253V22.2387L7.27133 19.333H12.673C13.0287 19.333 13.3172 19.0445 13.3172 18.6887C13.3172 18.3329 13.0287 18.0444 12.673 18.0444H7.00971C6.84131 18.0441 6.67939 18.1097 6.55863 18.2271L3.20038 21.5027C3.07492 21.6493 3.00614 21.836 3.00642 22.0289V27.3757C3.00642 27.5365 3.06647 27.6914 3.17482 27.8102L6.22935 31.1512C6.35142 31.2848 6.52414 31.361 6.70523 31.3609H12.673C13.0287 31.3609 13.3172 31.0724 13.3172 30.7166C13.3172 30.3609 13.0288 30.0724 12.673 30.0724Z" fill="#AFCA0B"/>
<path d="M19.0632 23.9511H18.3114C18.0776 23.9511 17.9355 23.8203 17.9355 23.7631C17.9355 23.706 18.0776 23.5752 18.3114 23.5752H20.1909C20.6061 23.5752 20.9427 23.2386 20.9427 22.8234C20.9427 22.4082 20.6061 22.0716 20.1909 22.0716H19.4391C19.4391 21.6564 19.1025 21.3198 18.6873 21.3198C18.2721 21.3198 17.9355 21.6564 17.9355 22.0716V22.1054C17.1017 22.2232 16.47 22.9181 16.4319 23.7594C16.4858 24.7451 17.3253 25.5024 18.3114 25.4547H19.0632C19.297 25.4547 19.4391 25.5855 19.4391 25.6426C19.4391 25.6998 19.297 25.8306 19.0632 25.8306H17.1837C16.7685 25.8306 16.4319 26.1672 16.4319 26.5824C16.4319 26.9975 16.7685 27.3342 17.1837 27.3342H17.9355C17.9355 27.7493 18.2721 28.0859 18.6873 28.0859C19.1025 28.0859 19.4391 27.7493 19.4391 27.3342V27.3003C20.2729 27.1826 20.9046 26.4876 20.9427 25.6464C20.8888 24.6607 20.0493 23.9034 19.0632 23.9511Z" fill="#AFCA0B"/>
</svg>
