<svg width="13" height="11" viewBox="0 0 13 11" fill="none" xmlns="http://www.w3.org/2000/svg">
<path d="M12.9727 5.75C12.9727 6.24219 12.5898 6.625 12.125 6.625H3.73047L6.60156 9.52344C6.95703 9.85156 6.95703 10.4258 6.60156 10.7539C6.4375 10.918 6.21875 11 6 11C5.75391 11 5.53516 10.918 5.37109 10.7539L0.996094 6.37891C0.640625 6.05078 0.640625 5.47656 0.996094 5.14844L5.37109 0.773438C5.69922 0.417969 6.27344 0.417969 6.60156 0.773438C6.95703 1.10156 6.95703 1.67578 6.60156 2.00391L3.73047 4.875H12.125C12.5898 4.875 12.9727 5.28516 12.9727 5.75Z" fill="#AFCA0B"/>
</svg>
