<svg width="60" height="60" viewBox="0 0 60 60" fill="none" xmlns="http://www.w3.org/2000/svg">
<g clip-path="url(#clip0_28_249)">
<path d="M54.1406 4.6875H34.6875C31.4566 4.6875 28.8277 7.31598 28.8277 10.5469V21.3281C28.8277 24.559 31.4566 27.188 34.6875 27.188H45V30.5997C45 31.0735 45.2852 31.5005 45.7224 31.6823C45.8675 31.7422 46.0204 31.7715 46.1714 31.7715C46.4758 31.7715 46.7747 31.6534 46.9991 31.4301L51.2572 27.188H54.1406C57.3715 27.188 60 24.559 60 21.3281V10.5469C60 7.31598 57.3715 4.6875 54.1406 4.6875ZM57.6562 21.3281C57.6562 23.2668 56.0793 24.8442 54.1406 24.8442H50.7729C50.463 24.8442 50.1654 24.9669 49.9457 25.1857L47.3438 27.778V26.0161C47.3438 25.3688 46.8192 24.8442 46.1719 24.8442H34.6875C32.7489 24.8442 31.1719 23.2668 31.1719 21.3281V10.5469C31.1719 8.60825 32.7489 7.03125 34.6875 7.03125H54.1406C56.0793 7.03125 57.6562 8.60825 57.6562 10.5469V21.3281Z" fill="white"/>
<path d="M52.8523 37.1836C49.5266 33.8575 44.115 33.8575 40.7893 37.1836L37.6596 40.3129C36.4465 41.5264 34.539 41.6116 33.222 40.5129C28.2539 36.367 23.6328 31.7458 19.4869 26.7777C18.3878 25.4608 18.4738 23.5528 19.6869 22.3402L22.8166 19.2105C26.1423 15.8848 26.1423 10.4732 22.8166 7.14751L18.1671 2.49801C16.5563 0.887144 14.4139 0 12.1356 0C9.85736 0 7.71549 0.887144 6.10416 2.49801C2.62974 5.97289 0.487873 10.583 0.0735976 15.4797C-0.34022 20.3759 0.996447 25.2804 3.83824 29.2895C11.2348 39.7242 20.2756 48.765 30.7103 56.1615C34.2415 58.6646 38.4666 60.0003 42.7696 59.9999C43.3519 59.9999 43.9364 59.9756 44.5201 59.9262C49.4168 59.5119 54.0269 57.3705 57.5013 53.8956C59.1126 52.2847 59.9998 50.1424 59.9998 47.8641C59.9998 45.5858 59.1126 43.444 57.5013 41.8326L52.8523 37.1836ZM32.0657 54.2495C21.8475 47.0063 12.9935 38.1527 5.75031 27.9341C0.518543 20.5531 1.36449 10.5528 7.76172 4.15557C8.92993 2.98736 10.4836 2.34375 12.1356 2.34375C13.7882 2.34375 15.3414 2.98736 16.51 4.15557L21.1591 8.80507C22.3277 9.97328 22.9709 11.5269 22.9709 13.179C22.9709 14.8311 22.3277 16.3847 21.1591 17.5529L20.9659 17.7465L13.3281 10.1088C12.8708 9.65147 12.1288 9.65147 11.671 10.1088C11.2133 10.5665 11.2133 11.3086 11.671 11.7663L19.3083 19.4036L18.0293 20.6826C15.9534 22.759 15.806 26.0252 17.6874 28.2797C21.9231 33.3553 26.6444 38.0767 31.7201 42.3124C33.9746 44.1933 37.2407 44.0468 39.3171 41.9704L40.5961 40.6914L53.8635 53.9588C47.5102 58.7424 38.723 58.9681 32.0657 54.2495ZM55.8442 52.2381C55.7783 52.304 55.7115 52.3685 55.6451 52.4331C55.6227 52.4065 55.5998 52.3804 55.5746 52.3552L42.2532 39.0343L42.4469 38.8407C43.6151 37.6725 45.1687 37.0289 46.8208 37.0289C48.4729 37.0289 50.0265 37.6725 51.1947 38.8407L55.8442 43.4902C57.0129 44.6584 57.656 46.2121 57.656 47.8641C57.656 49.5167 57.0129 51.0698 55.8442 52.2381Z" fill="white"/>
<path d="M9.29358 6.56006C8.9855 6.56006 8.68338 6.68457 8.46548 6.90338C8.24759 7.12128 8.1217 7.42386 8.1217 7.73193C8.1217 8.04001 8.24713 8.34259 8.46548 8.56049C8.68338 8.77838 8.9855 8.90381 9.29358 8.90381C9.60211 8.90381 9.90424 8.77838 10.1221 8.56049C10.3405 8.34259 10.4655 8.04001 10.4655 7.73193C10.4655 7.42386 10.3405 7.12128 10.1221 6.90338C9.90424 6.68411 9.60211 6.56006 9.29358 6.56006Z" fill="white"/>
<path d="M25.5831 43.1151C23.1826 40.9792 20.8526 38.7068 18.6585 36.3612C18.2163 35.8884 17.4747 35.8637 17.0023 36.3059C16.5294 36.7476 16.5047 37.4896 16.9469 37.962C19.19 40.3603 21.5712 42.683 24.0249 44.866C24.2482 45.0647 24.5266 45.1627 24.8035 45.1627C25.1267 45.1627 25.448 45.0299 25.6797 44.7695C26.11 44.2861 26.0665 43.5454 25.5831 43.1151Z" fill="white"/>
<path d="M15.6107 32.9586C15.1877 32.4688 14.4512 32.418 13.9609 32.8415C13.4711 33.2644 13.4203 34.0078 13.8433 34.4981L13.8575 34.5146C14.0886 34.781 14.4118 34.917 14.7382 34.917C15.0101 34.917 15.2843 34.8222 15.5072 34.6295C15.9966 34.2056 16.046 33.4613 15.6226 32.9724L15.6107 32.9586Z" fill="white"/>
<path d="M50.0976 14.7656C49.7896 14.7656 49.487 14.8911 49.2691 15.1089C49.0512 15.3273 48.9258 15.6294 48.9258 15.9375C48.9258 16.246 49.0512 16.5482 49.2691 16.7661C49.487 16.9839 49.7896 17.1094 50.0976 17.1094C50.4057 17.1094 50.7083 16.9839 50.9262 16.7661C51.1441 16.5482 51.2695 16.246 51.2695 15.9375C51.2695 15.6294 51.1441 15.3273 50.9262 15.1089C50.7083 14.8911 50.4057 14.7656 50.0976 14.7656Z" fill="white"/>
<path d="M44.4209 14.7656C44.1128 14.7656 43.8102 14.8911 43.5923 15.1089C43.3745 15.3273 43.249 15.6294 43.249 15.9375C43.249 16.246 43.3745 16.5482 43.5923 16.7661C43.8116 16.9839 44.1128 17.1094 44.4209 17.1094C44.729 17.1094 45.0316 16.9839 45.2495 16.7661C45.4687 16.5482 45.5928 16.246 45.5928 15.9375C45.5928 15.6294 45.4687 15.3273 45.2495 15.1089C45.0316 14.8911 44.7303 14.7656 44.4209 14.7656Z" fill="white"/>
<path d="M38.7456 14.7656C38.4361 14.7656 38.1349 14.8911 37.917 15.1089C37.6978 15.3273 37.5737 15.6294 37.5737 15.9375C37.5737 16.246 37.6978 16.5482 37.917 16.7661C38.1349 16.9839 38.4375 17.1094 38.7456 17.1094C39.0536 17.1094 39.3562 16.9839 39.5741 16.7661C39.792 16.5482 39.9174 16.246 39.9174 15.9375C39.9174 15.6294 39.792 15.3273 39.5741 15.1089C39.3562 14.8911 39.0536 14.7656 38.7456 14.7656Z" fill="white"/>
</g>
<defs>
<clipPath id="clip0_28_249">
<rect width="60" height="60" fill="white"/>
</clipPath>
</defs>
</svg>
