<svg width="15" height="15" viewBox="0 0 15 15" fill="none" xmlns="http://www.w3.org/2000/svg">
<path d="M1.49219 10.375L4.47266 9.08984C4.82812 8.95312 5.23828 9.03516 5.45703 9.33594L6.66016 10.8125C8.57422 9.88281 10.1055 8.35156 11.0352 6.4375L9.55859 5.23438C9.25781 5.01562 9.17578 4.60547 9.3125 4.25L10.5977 1.26953C10.7617 0.914062 11.1719 0.695312 11.5547 0.777344L14.3164 1.43359C14.7266 1.51562 14.9727 1.84375 14.9727 2.25391C14.9727 9.14453 9.36719 14.7773 2.47656 14.7773C2.06641 14.7773 1.73828 14.5039 1.65625 14.0938L1 11.3594C0.917969 10.9492 1.13672 10.5391 1.49219 10.375Z" fill="white"/>
</svg>
