<svg width="45" height="45" viewBox="0 0 45 45" fill="none" xmlns="http://www.w3.org/2000/svg">
<path d="M0.878906 43.2422H1.23047V17.7539C1.23047 17.2685 1.62404 16.875 2.10938 16.875H9.14062C9.62596 16.875 10.0195 17.2685 10.0195 17.7539V43.2422H12.4805V22.5C12.4805 22.0146 12.874 21.6211 13.3594 21.6211H20.3906C20.876 21.6211 21.2695 22.0146 21.2695 22.5V43.2422H23.7305V27.5882C23.7305 27.1027 24.124 26.7093 24.6094 26.7093H31.6406C32.126 26.7093 32.5195 27.1027 32.5195 27.5882V43.2422H34.9805V34.2773C34.9805 33.7919 35.374 33.3984 35.8594 33.3984H42.8906C43.376 33.3984 43.7695 33.7919 43.7695 34.2773V43.2422H44.1211C44.6064 43.2422 45 43.6357 45 44.1211C45 44.6065 44.6064 45 44.1211 45H0.878906C0.393574 45 0 44.6065 0 44.1211C0 43.6357 0.393574 43.2422 0.878906 43.2422ZM42.0117 43.2422V35.1562H36.7383V43.2422H42.0117ZM30.7617 43.2422V28.4671H25.4883V43.2422H30.7617ZM19.5117 43.2422V23.3789H14.2383V43.2422H19.5117ZM8.26172 43.2422V18.6328H2.98828V43.2422H8.26172Z" fill="#AFCA0B"/>
<path d="M8.91844 12.7165C7.97528 13.3334 7.32463 13.5273 6.50391 13.5809V14.2383C6.50391 14.7237 6.11033 15.1172 5.625 15.1172C5.13967 15.1172 4.7461 14.7237 4.7461 14.2383V13.4793C3.19711 13.0819 2.2043 11.757 1.98466 10.4505C1.69761 8.74336 2.58961 7.2595 4.25699 6.67011C4.418 6.61315 4.58192 6.55409 4.74601 6.49327V3.34828C4.35252 3.48864 4.0972 3.66987 4.08358 3.67963C3.69695 3.96853 3.14904 3.89162 2.85706 3.50622C2.56395 3.11933 2.63989 2.56808 3.02687 2.27496C3.07081 2.24165 3.74581 1.74067 4.7461 1.5242V0.878906C4.7461 0.393486 5.13967 0 5.625 0C6.11033 0 6.50391 0.393486 6.50391 0.878906V1.51901C6.60199 1.54046 6.70079 1.5648 6.80072 1.59486C7.90471 1.92656 8.72948 2.86919 8.95342 4.05483C9.15856 5.14151 8.8077 6.19181 8.03742 6.79588C7.64649 7.10253 7.16283 7.38272 6.50391 7.67725V11.8178C7.02361 11.7683 7.37534 11.6252 7.95604 11.2453C8.36236 10.9796 8.9071 11.0936 9.17271 11.4998C9.43849 11.9059 9.32458 12.4507 8.91844 12.7165ZM3.71813 10.159C3.81111 10.7117 4.15943 11.2948 4.7461 11.6086V8.36429C3.59262 8.82756 3.6661 9.8499 3.71813 10.159ZM6.95259 5.41274C7.20036 5.21842 7.30776 4.81342 7.22602 4.381C7.15694 4.01493 6.93158 3.58172 6.50382 3.3627V5.71078C6.6702 5.61437 6.82207 5.51514 6.95259 5.41274Z" fill="#AFCA0B"/>
<path d="M39.2577 26.6278C39.0928 26.7926 38.8693 26.8852 38.6362 26.8852C38.4031 26.8852 38.1796 26.7926 38.0147 26.6278L27.8725 16.4856L24.9617 19.3964C24.7968 19.5612 24.5733 19.6538 24.3403 19.6538C24.1072 19.6538 23.8837 19.5612 23.7188 19.3964L14.0847 9.76219L13.3675 10.4794C13.1161 10.7307 12.7381 10.806 12.4096 10.6698C12.0813 10.5338 11.8671 10.2133 11.8671 9.85781V4.39453C11.8671 3.90911 12.2607 3.51562 12.746 3.51562H18.2094C18.5649 3.51562 18.8853 3.72981 19.0214 4.05817C19.1573 4.38662 19.0821 4.76464 18.8308 5.01601L18.1048 5.74198L24.3403 11.9776L27.251 9.0668C27.5943 8.72358 28.1507 8.72358 28.4941 9.0668L42.0348 22.6077C42.378 22.9509 42.378 23.5074 42.0348 23.8506L39.2577 26.6278ZM27.8725 10.9314L24.9617 13.8422C24.7968 14.007 24.5733 14.0997 24.3403 14.0997C24.1072 14.0997 23.8837 14.007 23.7188 13.8422L16.2403 6.36363C16.0755 6.19884 15.9828 5.97524 15.9828 5.74216C15.9828 5.57499 16.0305 5.41274 16.1182 5.27353H13.6248V7.77006C13.9635 7.56185 14.4127 7.60447 14.7061 7.89785L24.3402 17.532L27.2509 14.6211C27.5942 14.278 28.1506 14.278 28.494 14.6211L38.6362 24.7634L40.1703 23.2291L27.8725 10.9314Z" fill="#AFCA0B"/>
</svg>
