<?xml version="1.0" encoding="utf-8"?>
<!-- Generator: Adobe Illustrator 23.0.1, SVG Export Plug-In . SVG Version: 6.00 Build 0)  -->
<svg version="1.1" id="Layer_1" xmlns="http://www.w3.org/2000/svg" xmlns:xlink="http://www.w3.org/1999/xlink" x="0px" y="0px"
	 viewBox="0 0 25 25" style="enable-background:new 0 0 25 25;" xml:space="preserve">
<style type="text/css">
	.st0{fill:#FF8000;}
</style>
<g>
	<path class="st0" d="M12.5,11.52c-0.99,0-1.8,0.8-1.8,1.8c0,0.99,0.8,1.8,1.8,1.8c0.99,0,1.8-0.8,1.8-1.8
		C14.3,12.33,13.49,11.52,12.5,11.52z M12.5,11.52c-0.99,0-1.8,0.8-1.8,1.8c0,0.99,0.8,1.8,1.8,1.8c0.99,0,1.8-0.8,1.8-1.8
		C14.3,12.33,13.49,11.52,12.5,11.52z M12.5,11.52c-0.99,0-1.8,0.8-1.8,1.8c0,0.99,0.8,1.8,1.8,1.8c0.99,0,1.8-0.8,1.8-1.8
		C14.3,12.33,13.49,11.52,12.5,11.52z M12.5,11.52c-0.99,0-1.8,0.8-1.8,1.8c0,0.99,0.8,1.8,1.8,1.8c0.99,0,1.8-0.8,1.8-1.8
		C14.3,12.33,13.49,11.52,12.5,11.52z M12.5,11.52c-0.99,0-1.8,0.8-1.8,1.8c0,0.99,0.8,1.8,1.8,1.8c0.99,0,1.8-0.8,1.8-1.8
		C14.3,12.33,13.49,11.52,12.5,11.52z M12.5,11.52c-0.99,0-1.8,0.8-1.8,1.8c0,0.99,0.8,1.8,1.8,1.8c0.99,0,1.8-0.8,1.8-1.8
		C14.3,12.33,13.49,11.52,12.5,11.52z M12.5,11.52c-0.99,0-1.8,0.8-1.8,1.8c0,0.99,0.8,1.8,1.8,1.8c0.99,0,1.8-0.8,1.8-1.8
		C14.3,12.33,13.49,11.52,12.5,11.52z M12.5,11.52c-0.99,0-1.8,0.8-1.8,1.8c0,0.99,0.8,1.8,1.8,1.8c0.99,0,1.8-0.8,1.8-1.8
		C14.3,12.33,13.49,11.52,12.5,11.52z M12.49,9.44c-3.1,0-5.86,1.57-6.92,3.88c1.06,2.32,3.84,3.88,6.94,3.88h0.01
		c3.1,0,5.86-1.57,6.92-3.88C18.37,11,15.59,9.43,12.49,9.44z M15.26,12.12c-0.08,0.03-0.16,0.06-0.24,0.07
		c0.16,0.35,0.24,0.73,0.24,1.14c0,1.53-1.24,2.77-2.77,2.77s-2.77-1.24-2.77-2.77c0-1.53,1.24-2.77,2.77-2.77
		c0.81,0,1.55,0.35,2.05,0.91c0.08-0.1,0.2-0.18,0.33-0.24c0.35-0.14,0.71-0.06,0.81,0.19C15.8,11.65,15.61,11.97,15.26,12.12z
		 M12.5,11.52c-0.99,0-1.8,0.8-1.8,1.8c0,0.99,0.8,1.8,1.8,1.8c0.99,0,1.8-0.8,1.8-1.8C14.3,12.33,13.49,11.52,12.5,11.52z
		 M12.5,11.52c-0.99,0-1.8,0.8-1.8,1.8c0,0.99,0.8,1.8,1.8,1.8c0.99,0,1.8-0.8,1.8-1.8C14.3,12.33,13.49,11.52,12.5,11.52z
		 M12.5,11.52c-0.99,0-1.8,0.8-1.8,1.8c0,0.99,0.8,1.8,1.8,1.8c0.99,0,1.8-0.8,1.8-1.8C14.3,12.33,13.49,11.52,12.5,11.52z
		 M12.5,11.52c-0.99,0-1.8,0.8-1.8,1.8c0,0.99,0.8,1.8,1.8,1.8c0.99,0,1.8-0.8,1.8-1.8C14.3,12.33,13.49,11.52,12.5,11.52z
		 M12.5,11.52c-0.99,0-1.8,0.8-1.8,1.8c0,0.99,0.8,1.8,1.8,1.8c0.99,0,1.8-0.8,1.8-1.8C14.3,12.33,13.49,11.52,12.5,11.52z
		 M12.5,11.52c-0.99,0-1.8,0.8-1.8,1.8c0,0.99,0.8,1.8,1.8,1.8c0.99,0,1.8-0.8,1.8-1.8C14.3,12.33,13.49,11.52,12.5,11.52z
		 M12.5,11.52c-0.99,0-1.8,0.8-1.8,1.8c0,0.99,0.8,1.8,1.8,1.8c0.99,0,1.8-0.8,1.8-1.8C14.3,12.33,13.49,11.52,12.5,11.52z"/>
	<path class="st0" d="M14.3,13.32c0,0.99-0.8,1.8-1.8,1.8c-0.99,0-1.8-0.8-1.8-1.8c0-0.99,0.8-1.8,1.8-1.8
		C13.49,11.52,14.3,12.33,14.3,13.32z"/>
</g>
</svg>
