<?xml version="1.0" encoding="utf-8"?>
<!-- Generator: Adobe Illustrator 23.0.1, SVG Export Plug-In . SVG Version: 6.00 Build 0)  -->
<svg version="1.1" id="Layer_1" xmlns="http://www.w3.org/2000/svg" xmlns:xlink="http://www.w3.org/1999/xlink" x="0px" y="0px"
	 viewBox="0 0 25 25" style="enable-background:new 0 0 25 25;" xml:space="preserve">
<style type="text/css">
	.st0{fill:#FF8000;}
	.st1{fill:#FFFFFF;}
</style>
<g>
	<ellipse class="st0" cx="11.21" cy="17.88" rx="8.26" ry="2.27"/>
	<path class="st0" d="M11.21,20.32c-4.14,0-8.43-0.91-8.43-2.44c0-1.53,4.28-2.44,8.43-2.44c4.14,0,8.43,0.91,8.43,2.44
		C19.63,19.41,15.35,20.32,11.21,20.32z M11.21,15.78c-4.84,0-8.09,1.09-8.09,2.1s3.25,2.1,8.09,2.1c4.84,0,8.09-1.08,8.09-2.1
		S16.04,15.78,11.21,15.78z"/>
</g>
<g>
	<path class="st1" d="M11.21,19.31c-2.87,0-5.78-0.49-5.78-1.43c0-0.94,2.91-1.43,5.78-1.43s5.78,0.49,5.78,1.43
		C16.99,18.82,14.08,19.31,11.21,19.31z M11.21,16.79c-3.37,0-5.44,0.63-5.44,1.09c0,0.45,2.07,1.09,5.44,1.09s5.44-0.63,5.44-1.09
		C16.65,17.43,14.58,16.79,11.21,16.79z"/>
</g>
<g>
	<path class="st0" d="M11.21,18.05c-0.09,0-0.17-0.08-0.17-0.17V5.32c0-0.09,0.08-0.17,0.17-0.17c0.09,0,0.17,0.08,0.17,0.17v12.56
		C11.37,17.98,11.3,18.05,11.21,18.05z"/>
</g>
<g>
	<g>
		<path class="st0" d="M21.43,12.39c-0.5,0.22-1.4,0.64-2.45,0.41c-2.5-0.55-5.3-1.22-7.75-0.41c0-2.04,0-4.08,0-6.12
			c3.26-0.82,6.93,0.41,10.19,0C21.43,8.31,21.43,10.35,21.43,12.39L21.43,12.39z"/>
	</g>
	<g>
		<path class="st0" d="M19.7,12.97c-0.38,0-0.78-0.04-1.2-0.13l-0.2-0.04c-2.3-0.5-4.67-1.02-7.01-0.24
			c-0.05,0.02-0.11,0.01-0.15-0.02c-0.04-0.03-0.07-0.08-0.07-0.14V6.28c0-0.08,0.05-0.15,0.13-0.16c1.84-0.46,3.83-0.28,5.74-0.1
			c1.5,0.14,3.04,0.28,4.47,0.1c0.05-0.01,0.1,0.01,0.13,0.04c0.04,0.03,0.06,0.08,0.06,0.13v6.12c0,0.06-0.03,0.12-0.09,0.15
			C21.01,12.83,20.39,12.97,19.7,12.97z M13.88,11.81c1.51,0,3.02,0.33,4.49,0.65l0.2,0.04c1.04,0.23,1.99,0.15,2.69-0.22V6.47
			c-1.41,0.15-2.91,0.01-4.35-0.12C15.06,6.18,13.16,6,11.4,6.41v5.75C12.23,11.91,13.06,11.81,13.88,11.81z M21.43,12.39
			L21.43,12.39L21.43,12.39z"/>
	</g>
</g>
</svg>
