<?xml version="1.0" encoding="utf-8"?>
<!-- Generator: Adobe Illustrator 23.0.1, SVG Export Plug-In . SVG Version: 6.00 Build 0)  -->
<svg version="1.1" id="Layer_1" xmlns="http://www.w3.org/2000/svg" xmlns:xlink="http://www.w3.org/1999/xlink" x="0px" y="0px"
	 viewBox="0 0 25 25" style="enable-background:new 0 0 25 25;" xml:space="preserve">
<style type="text/css">
	.st0{fill:#FF8000;}
	.st1{fill:#FFFFFF;}
	.st2{opacity:0.11;fill:#FF8000;}
</style>
<g>
	<g>
		<path class="st0" d="M12.08,21.02c-0.08,0-0.16,0-0.24,0l0-0.12c0.16,0,0.33,0,0.49,0l0,0.12C12.25,21.02,12.17,21.02,12.08,21.02
			z M11.35,20.99c-0.16-0.01-0.33-0.03-0.49-0.05l0.02-0.12c0.16,0.02,0.32,0.04,0.48,0.05L11.35,20.99z M12.83,20.99l-0.01-0.12
			c0.16-0.01,0.32-0.03,0.48-0.05l0.02,0.12C13.16,20.96,12.99,20.97,12.83,20.99z M10.37,20.86c-0.16-0.03-0.32-0.07-0.48-0.11
			l0.03-0.12c0.16,0.04,0.32,0.07,0.48,0.11L10.37,20.86z M13.8,20.85l-0.02-0.12c0.16-0.03,0.32-0.07,0.48-0.11l0.03,0.12
			C14.13,20.79,13.97,20.82,13.8,20.85z M9.41,20.61c-0.16-0.05-0.31-0.1-0.47-0.16l0.04-0.11c0.15,0.06,0.31,0.11,0.46,0.16
			L9.41,20.61z M14.76,20.61l-0.04-0.12c0.15-0.05,0.31-0.1,0.46-0.16l0.04,0.11C15.08,20.51,14.92,20.56,14.76,20.61z M8.49,20.27
			c-0.15-0.07-0.3-0.14-0.45-0.21l0.06-0.11c0.14,0.07,0.29,0.14,0.44,0.21L8.49,20.27z M15.69,20.26l-0.05-0.11
			c0.15-0.06,0.3-0.13,0.44-0.21l0.06,0.11C15.98,20.13,15.83,20.2,15.69,20.26z M7.6,19.82c-0.14-0.08-0.28-0.17-0.42-0.26
			l0.07-0.1c0.14,0.09,0.28,0.17,0.42,0.26L7.6,19.82z M16.56,19.82l-0.06-0.11c0.14-0.08,0.28-0.17,0.41-0.26l0.07,0.1
			C16.85,19.65,16.71,19.74,16.56,19.82z M6.78,19.28c-0.13-0.1-0.26-0.2-0.39-0.3l0.08-0.09c0.12,0.1,0.25,0.2,0.38,0.3L6.78,19.28
			z M17.39,19.28l-0.07-0.1c0.13-0.1,0.26-0.2,0.38-0.3l0.08,0.09C17.65,19.08,17.52,19.18,17.39,19.28z M6.01,18.65
			c-0.12-0.11-0.24-0.23-0.35-0.34l0.09-0.09c0.11,0.12,0.23,0.23,0.35,0.34L6.01,18.65z M18.15,18.65l-0.08-0.09
			c0.12-0.11,0.24-0.22,0.35-0.34l0.09,0.09C18.39,18.42,18.27,18.54,18.15,18.65z M5.33,17.95c-0.11-0.12-0.21-0.25-0.31-0.38
			l0.1-0.08c0.1,0.13,0.2,0.25,0.31,0.38L5.33,17.95z M18.84,17.94l-0.09-0.08c0.11-0.12,0.21-0.25,0.31-0.38l0.1,0.08
			C19.05,17.69,18.95,17.82,18.84,17.94z M4.72,17.17c-0.09-0.13-0.18-0.27-0.27-0.41l0.1-0.06c0.08,0.14,0.17,0.27,0.27,0.41
			L4.72,17.17z M19.45,17.16l-0.1-0.07c0.09-0.13,0.18-0.27,0.27-0.41l0.1,0.06C19.63,16.89,19.54,17.03,19.45,17.16z M4.2,16.33
			c-0.08-0.14-0.15-0.29-0.22-0.44l0.11-0.05c0.07,0.15,0.14,0.29,0.22,0.43L4.2,16.33z M19.97,16.32l-0.11-0.06
			c0.08-0.14,0.15-0.29,0.22-0.43l0.11,0.05C20.12,16.03,20.04,16.18,19.97,16.32z M3.78,15.44c-0.06-0.15-0.12-0.31-0.17-0.46
			l0.12-0.04c0.05,0.15,0.11,0.31,0.17,0.46L3.78,15.44z M20.39,15.43l-0.11-0.05c0.06-0.15,0.12-0.3,0.17-0.46l0.12,0.04
			C20.51,15.12,20.45,15.28,20.39,15.43z M3.46,14.5c-0.04-0.16-0.09-0.32-0.12-0.48L3.46,14c0.04,0.16,0.08,0.32,0.12,0.47
			L3.46,14.5z M20.71,14.49l-0.12-0.03c0.04-0.16,0.08-0.31,0.12-0.47l0.12,0.03C20.79,14.18,20.75,14.34,20.71,14.49z M3.24,13.54
			c-0.03-0.16-0.05-0.33-0.07-0.49l0.12-0.01c0.02,0.16,0.04,0.32,0.07,0.48L3.24,13.54z M20.92,13.53l-0.12-0.02
			c0.03-0.16,0.05-0.32,0.07-0.48l0.12,0.01C20.97,13.2,20.95,13.37,20.92,13.53z M3.13,12.56c-0.01-0.16-0.01-0.33-0.01-0.49
			l0.12,0c0,0.16,0,0.33,0.01,0.49L3.13,12.56z M21.03,12.55l-0.12-0.01c0.01-0.16,0.01-0.32,0.01-0.49l0-0.02l0.12,0l0,0.02
			C21.04,12.22,21.04,12.39,21.03,12.55z M3.25,11.58l-0.12-0.01c0.01-0.16,0.02-0.33,0.04-0.49l0.12,0.01
			C3.28,11.25,3.26,11.42,3.25,11.58z M20.91,11.55c-0.01-0.16-0.02-0.32-0.04-0.49l0.12-0.01c0.02,0.16,0.03,0.33,0.04,0.49
			L20.91,11.55z M3.36,10.61l-0.12-0.02c0.03-0.16,0.06-0.32,0.09-0.48l0.12,0.03C3.42,10.29,3.39,10.45,3.36,10.61z M20.8,10.58
			c-0.03-0.16-0.06-0.32-0.09-0.48l0.12-0.03c0.04,0.16,0.07,0.32,0.1,0.48L20.8,10.58z M3.57,9.66L3.45,9.63
			C3.5,9.47,3.55,9.31,3.6,9.16L3.71,9.2C3.66,9.35,3.61,9.5,3.57,9.66z M20.59,9.63c-0.04-0.16-0.09-0.31-0.15-0.46l0.12-0.04
			c0.05,0.15,0.1,0.31,0.15,0.47L20.59,9.63z M3.89,8.74L3.77,8.69c0.06-0.15,0.13-0.3,0.2-0.45l0.11,0.05
			C4.01,8.44,3.95,8.59,3.89,8.74z M20.27,8.71c-0.06-0.15-0.13-0.3-0.2-0.44l0.11-0.05c0.07,0.15,0.14,0.3,0.2,0.45L20.27,8.71z
			 M4.3,7.86L4.19,7.8c0.08-0.14,0.16-0.29,0.25-0.43l0.1,0.06C4.46,7.57,4.38,7.71,4.3,7.86z M19.85,7.83
			c-0.08-0.14-0.16-0.28-0.24-0.42l0.1-0.06c0.09,0.14,0.17,0.28,0.25,0.43L19.85,7.83z M4.81,7.03l-0.1-0.07
			C4.8,6.82,4.9,6.69,5,6.56l0.1,0.08C5,6.76,4.9,6.89,4.81,7.03z M19.34,7.01c-0.09-0.13-0.19-0.26-0.29-0.39l0.1-0.08
			c0.1,0.13,0.2,0.26,0.29,0.4L19.34,7.01z M5.41,6.26L5.32,6.18c0.11-0.12,0.22-0.25,0.33-0.36L5.74,5.9
			C5.63,6.01,5.52,6.13,5.41,6.26z M18.74,6.24C18.63,6.12,18.52,6,18.41,5.88L18.5,5.8c0.11,0.12,0.23,0.24,0.34,0.36L18.74,6.24z
			 M6.09,5.56L6,5.47c0.12-0.11,0.25-0.22,0.37-0.32l0.08,0.09C6.33,5.34,6.21,5.45,6.09,5.56z M18.06,5.54
			c-0.12-0.11-0.24-0.22-0.37-0.32l0.08-0.09c0.13,0.1,0.25,0.21,0.37,0.32L18.06,5.54z M6.84,4.94l-0.07-0.1
			c0.13-0.1,0.27-0.19,0.4-0.28l0.07,0.1C7.1,4.75,6.97,4.84,6.84,4.94z M17.31,4.92c-0.13-0.1-0.27-0.19-0.4-0.28l0.07-0.1
			c0.14,0.09,0.27,0.18,0.41,0.28L17.31,4.92z M7.65,4.4L7.59,4.3c0.14-0.08,0.29-0.16,0.43-0.24l0.06,0.11
			C7.94,4.24,7.79,4.32,7.65,4.4z M16.49,4.39c-0.14-0.08-0.28-0.16-0.43-0.23l0.06-0.11c0.15,0.07,0.29,0.15,0.43,0.24L16.49,4.39z
			 M8.52,3.96L8.47,3.85c0.15-0.07,0.3-0.13,0.46-0.19l0.04,0.11C8.82,3.84,8.67,3.9,8.52,3.96z M15.62,3.95
			c-0.15-0.06-0.3-0.13-0.45-0.18l0.04-0.11c0.15,0.06,0.31,0.12,0.46,0.19L15.62,3.95z M9.43,3.62L9.39,3.5
			c0.16-0.05,0.32-0.09,0.48-0.13L9.9,3.49C9.74,3.53,9.58,3.57,9.43,3.62z M14.71,3.61c-0.15-0.05-0.31-0.09-0.47-0.13l0.03-0.12
			c0.16,0.04,0.32,0.08,0.48,0.13L14.71,3.61z M10.37,3.38l-0.02-0.12c0.16-0.03,0.32-0.06,0.49-0.08l0.02,0.12
			C10.69,3.32,10.53,3.35,10.37,3.38z M13.76,3.38c-0.16-0.03-0.32-0.06-0.48-0.08l0.02-0.12c0.16,0.02,0.33,0.05,0.49,0.08
			L13.76,3.38z M11.34,3.25l-0.01-0.12c0.16-0.01,0.33-0.02,0.49-0.03l0,0.12C11.66,3.22,11.5,3.23,11.34,3.25z M12.8,3.24
			c-0.16-0.01-0.32-0.02-0.49-0.03l0-0.12c0.16,0,0.33,0.01,0.49,0.03L12.8,3.24z"/>
	</g>
	<path class="st0" d="M19.54,12.09c0,0.03,0,0.06,0,0.1c0,0.1,0,0.19-0.01,0.29c-0.15,3-2.09,5.54-4.77,6.56
		c-0.03,0.01-0.06,0.02-0.08,0.03c-0.09,0.03-0.17,0.06-0.26,0.09c-0.03,0.01-0.06,0.02-0.09,0.03c-0.17,0.05-0.35,0.1-0.53,0.14
		c-0.06,0.01-0.12,0.03-0.18,0.04c-0.15,0.03-0.3,0.06-0.46,0.08c-0.03,0-0.06,0.01-0.09,0.01c-0.06,0.01-0.12,0.01-0.19,0.02
		c-0.03,0-0.06,0.01-0.09,0.01c-0.06,0.01-0.13,0.01-0.19,0.01c-0.16,0.01-0.32,0.02-0.48,0.02c-0.16,0-0.32-0.01-0.48-0.02
		c-0.06,0-0.13-0.01-0.19-0.01c-0.03,0-0.06-0.01-0.09-0.01c-0.06-0.01-0.12-0.01-0.19-0.02c-0.03,0-0.06-0.01-0.09-0.01
		c-0.15-0.02-0.31-0.05-0.46-0.08c-0.06-0.01-0.12-0.03-0.18-0.04c-0.18-0.04-0.36-0.09-0.53-0.14c-0.03-0.01-0.06-0.02-0.09-0.03
		c-0.09-0.03-0.17-0.06-0.26-0.09c-0.03-0.01-0.06-0.02-0.08-0.03C6.8,18,4.87,15.47,4.71,12.47c0-0.08-0.01-0.16-0.01-0.24
		c0-0.02,0-0.03,0-0.05c0-0.01,0-0.02,0-0.04c0-0.02,0-0.04,0-0.06c0-0.09,0-0.18,0-0.26c0-0.03,0-0.05,0-0.08c0-0.01,0-0.02,0-0.04
		c0-0.06,0.01-0.13,0.01-0.19c0-0.03,0.01-0.06,0.01-0.09c0.01-0.06,0.01-0.12,0.02-0.19c0.01-0.06,0.02-0.12,0.02-0.19
		c0.01-0.09,0.03-0.18,0.04-0.28c0.14-0.81,0.42-1.57,0.8-2.27c0.01-0.02,0.03-0.05,0.04-0.07c0.15-0.27,0.32-0.53,0.5-0.77
		c0.01-0.01,0.02-0.03,0.03-0.04c0.17-0.23,0.36-0.45,0.56-0.66c0,0,0,0,0,0c0.27-0.28,0.55-0.54,0.86-0.77
		C7.75,6.09,7.9,5.98,8.05,5.88c0.15-0.1,0.3-0.19,0.46-0.28c0.05-0.03,0.1-0.06,0.16-0.09c0.05-0.03,0.11-0.06,0.16-0.08
		C8.86,5.42,8.9,5.4,8.93,5.39C9,5.35,9.06,5.32,9.13,5.3c0.02-0.01,0.03-0.01,0.05-0.02c0.05-0.02,0.09-0.04,0.14-0.06
		c0.06-0.02,0.11-0.04,0.17-0.07c0.03-0.01,0.06-0.02,0.08-0.03C9.61,5.1,9.64,5.09,9.68,5.08c0.05-0.02,0.1-0.03,0.15-0.05
		C9.86,5.02,9.89,5.01,9.92,5c0.06-0.02,0.12-0.04,0.18-0.05c0.15-0.04,0.3-0.08,0.45-0.11c0.06-0.01,0.12-0.03,0.18-0.04
		c0.06-0.01,0.12-0.02,0.18-0.03c0.09-0.02,0.18-0.03,0.28-0.04c0.06-0.01,0.12-0.02,0.19-0.02c0.03,0,0.06-0.01,0.09-0.01
		c0.06-0.01,0.13-0.01,0.19-0.01c0.16-0.01,0.32-0.02,0.48-0.02c0.16,0,0.32,0.01,0.48,0.02c0.06,0,0.13,0.01,0.19,0.01
		c0.03,0,0.06,0.01,0.09,0.01c0.06,0.01,0.12,0.01,0.19,0.02c0.09,0.01,0.19,0.03,0.28,0.04c0.06,0.01,0.12,0.02,0.18,0.03
		c0.06,0.01,0.12,0.02,0.18,0.04c0.15,0.03,0.3,0.07,0.45,0.11c0.06,0.02,0.12,0.03,0.18,0.05c0.03,0.01,0.06,0.02,0.09,0.03
		c0.05,0.02,0.1,0.03,0.15,0.05c0.04,0.01,0.07,0.03,0.11,0.04c0.03,0.01,0.06,0.02,0.08,0.03c0.06,0.02,0.11,0.04,0.17,0.07
		c0.05,0.02,0.09,0.04,0.14,0.06c0.02,0.01,0.03,0.01,0.05,0.02c0.07,0.03,0.13,0.06,0.19,0.09c0.04,0.02,0.07,0.03,0.11,0.05
		c0.05,0.03,0.11,0.05,0.16,0.08c0.05,0.03,0.11,0.06,0.16,0.09c0.16,0.09,0.31,0.18,0.46,0.28c0.15,0.1,0.29,0.2,0.44,0.31
		c0.31,0.23,0.59,0.49,0.86,0.77c0,0,0,0,0,0c0.2,0.21,0.38,0.43,0.56,0.66c0.01,0.01,0.02,0.03,0.03,0.04
		c0.18,0.25,0.35,0.5,0.5,0.77c0.01,0.02,0.03,0.05,0.04,0.07c0.38,0.7,0.66,1.46,0.8,2.27c0.02,0.09,0.03,0.18,0.04,0.28
		c0.01,0.06,0.02,0.12,0.02,0.19c0.01,0.06,0.01,0.12,0.02,0.19c0,0.03,0.01,0.06,0.01,0.09c0,0.06,0.01,0.13,0.01,0.19
		C19.54,11.83,19.54,11.96,19.54,12.09z"/>
	<circle class="st1" cx="12.12" cy="12.09" r="6.17"/>
	<circle class="st0" cx="12.12" cy="12.09" r="4.89"/>
	<circle class="st1" cx="12.12" cy="12.09" r="3.71"/>
	<circle class="st0" cx="12.12" cy="12.11" r="2.59"/>
	<circle class="st1" cx="12.12" cy="12.02" r="1.24"/>
	<path class="st2" d="M17.02,12.09c0,2.62-2.06,4.75-4.64,4.88l-2.49-1.93c0.62,0.47,1.4,0.75,2.24,0.75c2.05,0,3.71-1.66,3.71-3.71
		c0-1.13-0.51-2.14-1.3-2.82l2.39,1.85C16.99,11.44,17.02,11.76,17.02,12.09z"/>
	<path d="M20.19,2.6l0,1.43l1.42-0.01L19.43,6.2l-1.1-0.03l-5.96,5.96c-0.08,0.08-0.2,0.08-0.27,0l-0.02-0.02
		c-0.08-0.08-0.08-0.2,0-0.27l5.96-5.96L18,4.78L20.19,2.6z"/>
</g>
</svg>
